<svg width="150" height="16" viewBox="0 0 150 16" fill="none" xmlns="http://www.w3.org/2000/svg">
<path d="M5.31 11.73V11.57C5.09 11.82 4.88 12.02 4.67 12.18C4.46 12.34 4.23 12.46 3.98 12.54C3.73 12.62 3.46 12.66 3.17 12.66C2.78 12.66 2.42 12.58 2.09 12.41C1.76 12.25 1.47 12.01 1.23 11.71C0.989996 11.41 0.809993 11.05 0.679993 10.64C0.559993 10.23 0.490005 9.77999 0.490005 9.29999C0.490005 8.28999 0.739996 7.49999 1.23 6.92999C1.72 6.35999 2.37999 6.07999 3.17999 6.07999C3.64999 6.07999 4.04 6.16001 4.36 6.32001C4.68 6.48001 4.99 6.73 5.3 7.06V4.67001C5.3 4.34001 5.37 4.09001 5.5 3.92001C5.63 3.75001 5.82001 3.66 6.07001 3.66C6.32001 3.66 6.5 3.74001 6.64 3.89001C6.77 4.05001 6.84 4.27999 6.84 4.57999V11.73C6.84 12.04 6.77 12.27 6.63 12.42C6.49 12.57 6.3 12.65 6.08 12.65C5.86 12.65 5.68 12.57 5.53 12.41C5.38 12.26 5.31 12.03 5.31 11.73ZM2.12 9.35001C2.12 9.79001 2.19001 10.16 2.32001 10.47C2.46001 10.78 2.64 11.01 2.88 11.17C3.12 11.33 3.38 11.41 3.66 11.41C3.95 11.41 4.2 11.34 4.44 11.19C4.68 11.04 4.86 10.81 5 10.51C5.14 10.2 5.21001 9.81999 5.21001 9.35999C5.21001 8.92999 5.14 8.56 5 8.25C4.86 7.94 4.66999 7.70001 4.42999 7.54001C4.18999 7.38001 3.93 7.29001 3.64 7.29001C3.34 7.29001 3.08 7.37001 2.84 7.54001C2.61 7.71001 2.43 7.95001 2.3 8.26001C2.18 8.57001 2.12 8.94001 2.12 9.35001Z" fill="#F58225"/>
<path d="M12.45 9.76001H9.28C9.28 10.13 9.36 10.45 9.5 10.73C9.64 11.01 9.84 11.22 10.08 11.36C10.32 11.5 10.58 11.57 10.87 11.57C11.06 11.57 11.24 11.55 11.4 11.5C11.56 11.45 11.72 11.38 11.87 11.29C12.02 11.19 12.16 11.09 12.29 10.98C12.42 10.87 12.58 10.72 12.78 10.53C12.86 10.46 12.98 10.42 13.14 10.42C13.31 10.42 13.44 10.47 13.54 10.56C13.64 10.65 13.69 10.78 13.69 10.95C13.69 11.1 13.63 11.27 13.52 11.46C13.4 11.66 13.23 11.84 13 12.02C12.77 12.2 12.48 12.35 12.13 12.47C11.78 12.59 11.38 12.65 10.92 12.65C9.88 12.65 9.07001 12.35 8.49001 11.76C7.91001 11.17 7.62 10.36 7.62 9.34C7.62 8.86 7.69 8.42001 7.83 8.01001C7.97 7.60001 8.18 7.24999 8.45 6.95999C8.72 6.66999 9.06001 6.44001 9.46001 6.29001C9.86001 6.13001 10.3 6.06 10.79 6.06C11.42 6.06 11.97 6.18999 12.42 6.45999C12.87 6.72999 13.21 7.07 13.44 7.5C13.66 7.92 13.78 8.36001 13.78 8.79001C13.78 9.20001 13.66 9.45999 13.43 9.57999C13.21 9.69999 12.88 9.76001 12.45 9.76001ZM9.28 8.84H12.22C12.18 8.29 12.03 7.87001 11.77 7.60001C11.51 7.32001 11.17 7.19 10.75 7.19C10.35 7.19 10.01 7.32999 9.75999 7.60999C9.49999 7.87999 9.34 8.3 9.28 8.84Z" fill="#F58225"/>
<path d="M19.84 10.54C19.84 10.99 19.73 11.37 19.51 11.69C19.29 12.01 18.97 12.25 18.55 12.42C18.12 12.58 17.61 12.67 17 12.67C16.42 12.67 15.92 12.58 15.5 12.4C15.08 12.22 14.78 12 14.58 11.73C14.38 11.46 14.28 11.19 14.28 10.92C14.28 10.74 14.34 10.59 14.47 10.46C14.6 10.33 14.76 10.27 14.95 10.27C15.12 10.27 15.25 10.31 15.34 10.39C15.43 10.47 15.52 10.59 15.6 10.74C15.77 11.03 15.97 11.24 16.2 11.39C16.43 11.53 16.75 11.6 17.15 11.6C17.47 11.6 17.74 11.53 17.95 11.38C18.16 11.23 18.26 11.07 18.26 10.88C18.26 10.59 18.15 10.39 17.94 10.26C17.72 10.13 17.37 10 16.87 9.89001C16.31 9.75001 15.86 9.61001 15.51 9.45001C15.16 9.30001 14.88 9.10001 14.67 8.85001C14.46 8.60001 14.36 8.28999 14.36 7.92999C14.36 7.60999 14.46 7.30001 14.65 7.01001C14.84 6.72001 15.13 6.49001 15.51 6.32001C15.89 6.15001 16.34 6.06 16.88 6.06C17.3 6.06 17.68 6.1 18.01 6.19C18.34 6.28 18.62 6.39001 18.85 6.54001C19.07 6.69001 19.24 6.85 19.36 7.03C19.48 7.21 19.53 7.37999 19.53 7.54999C19.53 7.73999 19.47 7.89001 19.34 8.01001C19.22 8.13001 19.04 8.19 18.81 8.19C18.64 8.19 18.5 8.13999 18.39 8.04999C18.27 7.95999 18.14 7.81 17.99 7.62C17.87 7.46 17.72 7.32999 17.56 7.23999C17.39 7.13999 17.17 7.10001 16.88 7.10001C16.59 7.10001 16.34 7.16001 16.15 7.29001C15.96 7.41001 15.86 7.57001 15.86 7.76001C15.86 7.93001 15.93 8.06999 16.07 8.17999C16.21 8.28999 16.4 8.38001 16.65 8.45001C16.89 8.52001 17.22 8.60999 17.65 8.70999C18.15 8.82999 18.56 8.97999 18.88 9.14999C19.2 9.31999 19.44 9.52 19.6 9.75C19.76 9.98 19.84 10.24 19.84 10.54Z" fill="#F58225"/>
<path d="M21.49 5.32001C21.26 5.32001 21.07 5.24999 20.91 5.10999C20.75 4.96999 20.67 4.77999 20.67 4.51999C20.67 4.28999 20.75 4.10001 20.92 3.95001C21.08 3.80001 21.28 3.73001 21.49 3.73001C21.7 3.73001 21.89 3.79999 22.05 3.92999C22.21 4.05999 22.29 4.25999 22.29 4.51999C22.29 4.76999 22.21 4.96001 22.05 5.10001C21.9 5.25001 21.71 5.32001 21.49 5.32001ZM22.3 6.98999V11.67C22.3 11.99 22.22 12.24 22.07 12.41C21.92 12.58 21.72 12.66 21.48 12.66C21.24 12.66 21.05 12.58 20.9 12.4C20.75 12.23 20.68 11.99 20.68 11.67V7.03C20.68 6.71 20.75 6.47 20.9 6.31C21.05 6.15 21.24 6.07001 21.48 6.07001C21.72 6.07001 21.91 6.15 22.07 6.31C22.22 6.48 22.3 6.69999 22.3 6.98999Z" fill="#F58225"/>
<path d="M29.39 7.26001V11.97C29.39 12.51 29.33 12.97 29.22 13.36C29.11 13.75 28.92 14.07 28.67 14.32C28.42 14.57 28.09 14.76 27.68 14.88C27.27 15 26.76 15.06 26.15 15.06C25.59 15.06 25.09 14.98 24.65 14.83C24.21 14.67 23.87 14.47 23.64 14.22C23.4 13.97 23.28 13.72 23.28 13.46C23.28 13.26 23.35 13.1 23.48 12.98C23.61 12.85 23.78 12.79 23.97 12.79C24.21 12.79 24.42 12.89 24.59 13.1C24.68 13.21 24.77 13.31 24.86 13.42C24.95 13.53 25.06 13.62 25.17 13.7C25.28 13.78 25.42 13.83 25.58 13.87C25.74 13.91 25.92 13.93 26.13 13.93C26.55 13.93 26.88 13.87 27.11 13.75C27.34 13.63 27.5 13.47 27.6 13.26C27.69 13.05 27.75 12.83 27.76 12.59C27.78 12.35 27.79 11.97 27.8 11.44C27.55 11.79 27.26 12.05 26.94 12.24C26.61 12.42 26.22 12.51 25.77 12.51C25.23 12.51 24.75 12.37 24.35 12.09C23.94 11.81 23.63 11.43 23.42 10.93C23.2 10.43 23.09 9.86001 23.09 9.20001C23.09 8.71001 23.16 8.27 23.29 7.88C23.42 7.49 23.61 7.16001 23.86 6.89001C24.11 6.62001 24.39 6.42 24.71 6.28C25.03 6.14 25.38 6.07001 25.77 6.07001C26.23 6.07001 26.63 6.15999 26.96 6.32999C27.3 6.50999 27.61 6.78 27.9 7.16V6.94C27.9 6.66 27.97 6.44001 28.11 6.29001C28.25 6.14001 28.43 6.06 28.64 6.06C28.95 6.06 29.16 6.16 29.26 6.37C29.34 6.58 29.39 6.87001 29.39 7.26001ZM24.7 9.31C24.7 9.97 24.84 10.46 25.13 10.8C25.42 11.14 25.79 11.31 26.24 11.31C26.51 11.31 26.76 11.24 27 11.09C27.24 10.95 27.43 10.73 27.59 10.44C27.74 10.15 27.82 9.8 27.82 9.38C27.82 8.72 27.67 8.2 27.38 7.84C27.09 7.47 26.71 7.29001 26.23 7.29001C25.77 7.29001 25.4 7.47001 25.12 7.82001C24.84 8.16001 24.7 8.66 24.7 9.31Z" fill="#F58225"/>
<path d="M31.97 6.97V7.17001C32.25 6.79001 32.57 6.52 32.9 6.34C33.24 6.16 33.63 6.07999 34.07 6.07999C34.5 6.07999 34.88 6.16999 35.22 6.35999C35.56 6.54999 35.81 6.80999 35.97 7.14999C36.08 7.34999 36.15 7.56001 36.18 7.79001C36.21 8.02001 36.23 8.31001 36.23 8.67001V11.69C36.23 12.01 36.16 12.26 36.01 12.43C35.86 12.6 35.67 12.68 35.43 12.68C35.19 12.68 34.99 12.6 34.84 12.42C34.69 12.25 34.61 12.01 34.61 11.69V8.98999C34.61 8.45999 34.54 8.05001 34.39 7.76001C34.24 7.48001 33.95 7.34 33.5 7.34C33.21 7.34 32.95 7.43001 32.71 7.60001C32.47 7.77001 32.3 8.01 32.19 8.31C32.11 8.55 32.07 9 32.07 9.66V11.69C32.07 12.02 31.99 12.27 31.84 12.43C31.69 12.59 31.49 12.68 31.25 12.68C31.02 12.68 30.82 12.6 30.67 12.42C30.52 12.25 30.44 12.01 30.44 11.69V7.01001C30.44 6.70001 30.51 6.47001 30.64 6.32001C30.77 6.17001 30.96 6.09 31.19 6.09C31.33 6.09 31.46 6.12 31.58 6.19C31.69 6.26 31.79 6.35999 31.86 6.48999C31.94 6.60999 31.97 6.77 31.97 6.97Z" fill="#F58225"/>
<path d="M41.83 9.76001H38.66C38.66 10.13 38.74 10.45 38.88 10.73C39.02 11.01 39.22 11.22 39.46 11.36C39.7 11.5 39.96 11.57 40.25 11.57C40.44 11.57 40.62 11.55 40.78 11.5C40.94 11.45 41.09 11.38 41.25 11.29C41.4 11.19 41.54 11.09 41.67 10.98C41.8 10.87 41.96 10.72 42.16 10.53C42.24 10.46 42.36 10.42 42.52 10.42C42.69 10.42 42.82 10.47 42.92 10.56C43.02 10.65 43.07 10.78 43.07 10.95C43.07 11.1 43.01 11.27 42.9 11.46C42.78 11.66 42.61 11.84 42.38 12.02C42.15 12.2 41.86 12.35 41.51 12.47C41.16 12.59 40.76 12.65 40.3 12.65C39.26 12.65 38.45 12.35 37.87 11.76C37.29 11.17 37 10.36 37 9.34C37 8.86 37.07 8.42001 37.21 8.01001C37.35 7.60001 37.56 7.24999 37.83 6.95999C38.1 6.66999 38.44 6.44001 38.84 6.29001C39.24 6.13001 39.68 6.06 40.17 6.06C40.8 6.06 41.35 6.18999 41.8 6.45999C42.25 6.72999 42.59 7.07 42.82 7.5C43.05 7.92 43.16 8.36001 43.16 8.79001C43.16 9.20001 43.04 9.45999 42.81 9.57999C42.58 9.69999 42.25 9.76001 41.83 9.76001ZM38.66 8.84H41.6C41.56 8.29 41.41 7.87001 41.15 7.60001C40.89 7.32001 40.55 7.19 40.13 7.19C39.73 7.19 39.39 7.32999 39.14 7.60999C38.87 7.87999 38.72 8.3 38.66 8.84Z" fill="#F58225"/>
<path d="M48.44 11.73V11.57C48.22 11.82 48.01 12.02 47.8 12.18C47.59 12.34 47.36 12.46 47.11 12.54C46.86 12.62 46.59 12.66 46.3 12.66C45.91 12.66 45.55 12.58 45.22 12.41C44.89 12.25 44.6 12.01 44.36 11.71C44.12 11.41 43.94 11.05 43.81 10.64C43.69 10.23 43.62 9.77999 43.62 9.29999C43.62 8.28999 43.87 7.49999 44.36 6.92999C44.85 6.35999 45.51 6.07999 46.31 6.07999C46.78 6.07999 47.17 6.16001 47.49 6.32001C47.81 6.48001 48.12 6.73 48.43 7.06V4.67001C48.43 4.34001 48.5 4.09001 48.63 3.92001C48.76 3.75001 48.95 3.66 49.2 3.66C49.45 3.66 49.63 3.74001 49.77 3.89001C49.9 4.05001 49.97 4.27999 49.97 4.57999V11.73C49.97 12.04 49.9 12.27 49.76 12.42C49.62 12.57 49.43 12.65 49.21 12.65C48.99 12.65 48.81 12.57 48.66 12.41C48.51 12.26 48.44 12.03 48.44 11.73ZM45.25 9.35001C45.25 9.79001 45.32 10.16 45.45 10.47C45.59 10.78 45.77 11.01 46.01 11.17C46.25 11.33 46.51 11.41 46.79 11.41C47.08 11.41 47.34 11.34 47.57 11.19C47.81 11.04 47.99 10.81 48.13 10.51C48.27 10.2 48.34 9.81999 48.34 9.35999C48.34 8.92999 48.27 8.56 48.13 8.25C47.99 7.94 47.8 7.70001 47.56 7.54001C47.32 7.38001 47.06 7.29001 46.77 7.29001C46.47 7.29001 46.21 7.37001 45.97 7.54001C45.74 7.71001 45.56 7.95001 45.43 8.26001C45.31 8.57001 45.25 8.94001 45.25 9.35001Z" fill="#F58225"/>
<path d="M55.06 4.59V7.06C55.36 6.74 55.68 6.49999 55.99 6.32999C56.31 6.15999 56.7 6.07999 57.17 6.07999C57.71 6.07999 58.18 6.20999 58.59 6.45999C58.99 6.71999 59.31 7.09001 59.53 7.57001C59.75 8.05001 59.87 8.63001 59.87 9.29001C59.87 9.78001 59.81 10.23 59.68 10.64C59.56 11.05 59.37 11.41 59.14 11.71C58.9 12.01 58.61 12.24 58.28 12.41C57.94 12.57 57.57 12.66 57.16 12.66C56.91 12.66 56.68 12.63 56.46 12.57C56.24 12.51 56.05 12.43 55.9 12.34C55.75 12.24 55.61 12.14 55.51 12.04C55.4 11.94 55.26 11.78 55.08 11.58V11.74C55.08 12.04 55.01 12.27 54.86 12.43C54.71 12.59 54.53 12.66 54.3 12.66C54.07 12.66 53.89 12.58 53.75 12.43C53.61 12.27 53.55 12.04 53.55 11.74V4.66C53.55 4.33 53.62 4.08001 53.75 3.92001C53.88 3.75001 54.07 3.67001 54.31 3.67001C54.56 3.67001 54.75 3.75 54.89 3.91C54.99 4.06 55.06 4.29 55.06 4.59ZM55.14 9.39999C55.14 10.04 55.29 10.54 55.58 10.89C55.87 11.24 56.26 11.41 56.74 11.41C57.15 11.41 57.5 11.23 57.79 10.88C58.08 10.53 58.23 10.02 58.23 9.35999C58.23 8.92999 58.17 8.56001 58.05 8.26001C57.93 7.95001 57.75 7.71001 57.53 7.54001C57.3 7.37001 57.04 7.29001 56.74 7.29001C56.43 7.29001 56.16 7.37001 55.91 7.54001C55.67 7.71001 55.48 7.94999 55.34 8.26999C55.21 8.57999 55.14 8.95999 55.14 9.39999Z" fill="#F58225"/>
<path d="M61.96 12.86L62.11 12.5L60.12 7.48001C60 7.19001 59.94 6.98001 59.94 6.85001C59.94 6.71001 59.98 6.58 60.05 6.47C60.12 6.35 60.22 6.25999 60.34 6.17999C60.46 6.10999 60.59 6.07001 60.73 6.07001C60.96 6.07001 61.14 6.14001 61.26 6.29001C61.38 6.44001 61.48 6.64999 61.57 6.92999L62.94 10.92L64.24 7.20999C64.34 6.90999 64.44 6.67 64.52 6.5C64.6 6.33 64.69 6.22 64.78 6.16C64.87 6.1 65 6.07001 65.17 6.07001C65.29 6.07001 65.41 6.10001 65.52 6.17001C65.63 6.23001 65.72 6.31999 65.78 6.42999C65.84 6.53999 65.87 6.66 65.87 6.78C65.85 6.85 65.83 6.96001 65.79 7.10001C65.75 7.24001 65.71 7.37999 65.66 7.51999L63.55 13.05C63.37 13.54 63.19 13.92 63.02 14.19C62.85 14.47 62.62 14.68 62.33 14.83C62.04 14.98 61.66 15.05 61.17 15.05C60.7 15.05 60.34 15 60.1 14.9C59.86 14.8 59.74 14.61 59.74 14.33C59.74 14.14 59.8 14 59.91 13.9C60.02 13.8 60.19 13.75 60.41 13.75C60.5 13.75 60.58 13.76 60.67 13.79C60.77 13.81 60.86 13.83 60.94 13.83C61.13 13.83 61.27 13.8 61.38 13.75C61.49 13.7 61.58 13.6 61.67 13.46C61.75 13.33 61.85 13.13 61.96 12.86Z" fill="#F58225"/>
<path d="M85.44 6.20999H85.83V5.72C85.83 5.21 85.89 4.81001 86.02 4.51001C86.15 4.21001 86.37 3.98999 86.67 3.85999C86.98 3.71999 87.4 3.66 87.93 3.66C88.88 3.66 89.35 3.88999 89.35 4.35999C89.35 4.50999 89.3 4.63999 89.2 4.73999C89.1 4.84999 88.99 4.89999 88.85 4.89999C88.79 4.89999 88.68 4.88999 88.52 4.85999C88.37 4.83999 88.24 4.82001 88.13 4.82001C87.84 4.82001 87.65 4.90999 87.56 5.07999C87.48 5.24999 87.44 5.50001 87.44 5.82001V6.20999H87.84C88.46 6.20999 88.77 6.39999 88.77 6.76999C88.77 7.02999 88.69 7.19999 88.52 7.26999C88.36 7.33999 88.13 7.38 87.84 7.38H87.44V11.67C87.44 11.99 87.36 12.23 87.21 12.4C87.06 12.57 86.86 12.65 86.62 12.65C86.39 12.65 86.2 12.57 86.05 12.4C85.9 12.23 85.82 11.99 85.82 11.67V7.38H85.37C85.13 7.38 84.94 7.33 84.81 7.22C84.68 7.11 84.61 6.96999 84.61 6.79999C84.63 6.39999 84.9 6.20999 85.44 6.20999Z" fill="#F58225"/>
<path d="M90.75 10.32V11.67C90.75 12 90.67 12.25 90.52 12.41C90.37 12.58 90.17 12.66 89.93 12.66C89.69 12.66 89.5 12.58 89.35 12.41C89.2 12.25 89.12 12 89.12 11.68V7.17001C89.12 6.44001 89.38 6.07999 89.91 6.07999C90.18 6.07999 90.37 6.16 90.49 6.34C90.61 6.51 90.67 6.76 90.69 7.09C90.88 6.76 91.08 6.51 91.28 6.34C91.49 6.17 91.76 6.07999 92.1 6.07999C92.44 6.07999 92.77 6.16 93.09 6.34C93.41 6.51 93.57 6.73999 93.57 7.01999C93.57 7.21999 93.5 7.38001 93.37 7.51001C93.23 7.64001 93.09 7.70999 92.93 7.70999C92.87 7.70999 92.72 7.67001 92.5 7.60001C92.27 7.53001 92.07 7.48999 91.9 7.48999C91.66 7.48999 91.47 7.54999 91.32 7.67999C91.17 7.80999 91.05 7.99001 90.97 8.23001C90.89 8.48001 90.83 8.76999 90.8 9.10999C90.76 9.41999 90.75 9.83001 90.75 10.32Z" fill="#F58225"/>
<path d="M98.2 9.76001H95.03C95.04 10.13 95.11 10.45 95.25 10.73C95.4 11.01 95.59 11.22 95.83 11.37C96.07 11.51 96.33 11.58 96.62 11.58C96.81 11.58 96.99 11.56 97.15 11.51C97.31 11.47 97.46 11.39 97.62 11.3C97.77 11.2 97.91 11.1 98.04 10.99C98.17 10.88 98.33 10.73 98.53 10.54C98.61 10.47 98.73 10.43 98.89 10.43C99.06 10.43 99.19 10.48 99.3 10.57C99.4 10.66 99.45 10.79 99.45 10.96C99.45 11.11 99.39 11.28 99.28 11.47C99.16 11.67 98.99 11.86 98.76 12.04C98.53 12.22 98.24 12.37 97.89 12.49C97.54 12.61 97.14 12.67 96.68 12.67C95.64 12.67 94.83 12.37 94.25 11.78C93.67 11.19 93.38 10.38 93.38 9.35999C93.38 8.87999 93.45 8.44 93.6 8.03C93.74 7.62 93.95 7.27001 94.22 6.98001C94.49 6.69001 94.83 6.46 95.23 6.31C95.63 6.15 96.07 6.07999 96.56 6.07999C97.19 6.07999 97.74 6.21001 98.19 6.48001C98.64 6.74001 98.99 7.09001 99.21 7.51001C99.44 7.93001 99.55 8.36 99.55 8.81C99.55 9.22 99.43 9.48001 99.2 9.60001C98.95 9.70001 98.62 9.76001 98.2 9.76001ZM95.02 8.84H97.96C97.92 8.29 97.77 7.87001 97.51 7.60001C97.25 7.32001 96.91 7.19 96.48 7.19C96.08 7.19 95.74 7.32999 95.49 7.60999C95.24 7.87999 95.08 8.29 95.02 8.84Z" fill="#F58225"/>
<path d="M104.94 9.76001H101.77C101.77 10.13 101.85 10.45 101.99 10.73C102.14 11.01 102.33 11.22 102.57 11.37C102.81 11.51 103.07 11.58 103.36 11.58C103.55 11.58 103.73 11.56 103.89 11.51C104.05 11.47 104.21 11.39 104.36 11.3C104.51 11.2 104.65 11.1 104.78 10.99C104.9 10.88 105.07 10.73 105.27 10.54C105.35 10.47 105.47 10.43 105.63 10.43C105.8 10.43 105.93 10.48 106.04 10.57C106.14 10.66 106.19 10.79 106.19 10.96C106.19 11.11 106.13 11.28 106.02 11.47C105.91 11.67 105.74 11.86 105.5 12.04C105.27 12.22 104.98 12.37 104.63 12.49C104.28 12.61 103.88 12.67 103.42 12.67C102.38 12.67 101.57 12.37 100.99 11.78C100.41 11.19 100.12 10.38 100.12 9.35999C100.12 8.87999 100.19 8.44 100.34 8.03C100.48 7.62 100.69 7.27001 100.96 6.98001C101.23 6.69001 101.57 6.46 101.97 6.31C102.37 6.15 102.81 6.07999 103.3 6.07999C103.93 6.07999 104.47 6.21001 104.93 6.48001C105.38 6.74001 105.72 7.09001 105.94 7.51001C106.16 7.93001 106.28 8.36 106.28 8.81C106.28 9.22 106.16 9.48001 105.93 9.60001C105.69 9.70001 105.36 9.76001 104.94 9.76001ZM101.77 8.84H104.71C104.67 8.29 104.52 7.87001 104.26 7.60001C104 7.32001 103.66 7.19 103.23 7.19C102.83 7.19 102.5 7.32999 102.23 7.60999C101.98 7.87999 101.82 8.29 101.77 8.84Z" fill="#F58225"/>
<path d="M108.49 6.98001V7.17001C108.79 6.79001 109.11 6.52 109.44 6.34C109.76 6.16 110.14 6.07001 110.55 6.07001C111.05 6.07001 111.51 6.19999 111.93 6.45999C112.35 6.71999 112.68 7.09 112.92 7.59C113.16 8.09 113.29 8.67001 113.29 9.35001C113.29 9.85001 113.22 10.31 113.08 10.73C112.94 11.15 112.74 11.5 112.5 11.78C112.25 12.06 111.97 12.28 111.63 12.43C111.29 12.58 110.94 12.66 110.55 12.66C110.09 12.66 109.7 12.57 109.38 12.38C109.07 12.2 108.77 11.92 108.48 11.56V14C108.48 14.71 108.22 15.07 107.7 15.07C107.39 15.07 107.19 14.98 107.09 14.8C106.99 14.61 106.94 14.35 106.94 13.99V6.98999C106.94 6.67999 107.01 6.44999 107.14 6.29999C107.27 6.14999 107.46 6.07001 107.69 6.07001C107.92 6.07001 108.11 6.14999 108.25 6.29999C108.42 6.45999 108.49 6.68001 108.49 6.98001ZM111.66 9.32999C111.66 8.89999 111.59 8.53001 111.46 8.23001C111.33 7.92001 111.15 7.69 110.92 7.53C110.69 7.37 110.43 7.28 110.15 7.28C109.7 7.28 109.33 7.46 109.02 7.81C108.71 8.16 108.56 8.68 108.56 9.37C108.56 10.01 108.71 10.52 109.02 10.87C109.32 11.23 109.7 11.41 110.15 11.41C110.42 11.41 110.67 11.33 110.9 11.18C111.13 11.02 111.32 10.79 111.45 10.48C111.6 10.15 111.66 9.77999 111.66 9.32999Z" fill="#F58225"/>
<path d="M114.93 5.31C114.7 5.31 114.51 5.24001 114.35 5.10001C114.19 4.96001 114.11 4.76999 114.11 4.51999C114.11 4.28999 114.19 4.10001 114.36 3.95001C114.52 3.80001 114.71 3.73001 114.93 3.73001C115.14 3.73001 115.33 3.79999 115.49 3.92999C115.65 4.06999 115.73 4.25999 115.73 4.51999C115.73 4.76999 115.65 4.96001 115.49 5.10001C115.33 5.24001 115.15 5.31 114.93 5.31ZM115.73 6.98999V11.68C115.73 12 115.65 12.25 115.5 12.41C115.34 12.58 115.15 12.66 114.91 12.66C114.67 12.66 114.48 12.58 114.33 12.41C114.18 12.24 114.11 12 114.11 11.68V7.04001C114.11 6.72001 114.19 6.48001 114.33 6.32001C114.48 6.16001 114.67 6.07999 114.91 6.07999C115.15 6.07999 115.34 6.16001 115.5 6.32001C115.65 6.47001 115.73 6.69999 115.73 6.98999Z" fill="#F58225"/>
<path d="M120.95 11.92L119.52 9.57001L118.64 10.4V11.69C118.64 12 118.56 12.24 118.39 12.41C118.23 12.58 118.04 12.66 117.82 12.66C117.57 12.66 117.37 12.58 117.23 12.41C117.09 12.25 117.02 12 117.02 11.68V4.76999C117.02 4.40999 117.09 4.14001 117.23 3.95001C117.37 3.76001 117.57 3.67001 117.83 3.67001C118.08 3.67001 118.28 3.75999 118.42 3.92999C118.57 4.09999 118.64 4.34999 118.64 4.67999V8.60999L120.46 6.70001C120.69 6.46001 120.86 6.29999 120.98 6.20999C121.1 6.11999 121.24 6.07999 121.41 6.07999C121.61 6.07999 121.78 6.13999 121.92 6.26999C122.05 6.39999 122.12 6.56 122.12 6.75C122.12 6.99 121.9 7.31001 121.46 7.70001L120.6 8.48999L122.26 11.1C122.38 11.3 122.47 11.44 122.52 11.54C122.57 11.64 122.6 11.74 122.6 11.83C122.6 12.09 122.53 12.29 122.39 12.44C122.25 12.59 122.06 12.66 121.84 12.66C121.64 12.66 121.49 12.61 121.38 12.5C121.28 12.39 121.13 12.2 120.95 11.92Z" fill="#F58225"/>
<path d="M124.47 12.66C124.22 12.66 124.01 12.58 123.84 12.42C123.66 12.26 123.57 12.04 123.57 11.75C123.57 11.51 123.66 11.3 123.83 11.13C124 10.96 124.21 10.87 124.46 10.87C124.71 10.87 124.92 10.96 125.1 11.13C125.27 11.3 125.36 11.51 125.36 11.76C125.36 12.04 125.27 12.27 125.1 12.42C124.92 12.58 124.71 12.66 124.47 12.66Z" fill="#F58225"/>
<path d="M132.54 10.65C132.54 10.85 132.48 11.07 132.36 11.3C132.24 11.53 132.05 11.75 131.81 11.96C131.56 12.17 131.25 12.34 130.88 12.46C130.5 12.59 130.08 12.65 129.61 12.65C128.61 12.65 127.82 12.36 127.26 11.77C126.7 11.19 126.42 10.4 126.42 9.42001C126.42 8.75001 126.55 8.16999 126.81 7.64999C127.07 7.13999 127.44 6.75 127.92 6.47C128.41 6.19 128.99 6.04999 129.67 6.04999C130.09 6.04999 130.47 6.11001 130.83 6.23001C131.18 6.35001 131.48 6.51001 131.72 6.70001C131.96 6.90001 132.15 7.10001 132.28 7.32001C132.41 7.54001 132.47 7.74 132.47 7.94C132.47 8.13 132.4 8.29999 132.26 8.42999C132.11 8.55999 131.94 8.63 131.74 8.63C131.6 8.63 131.49 8.59 131.4 8.53C131.31 8.46 131.21 8.35 131.1 8.19C130.9 7.89 130.7 7.66001 130.48 7.51001C130.27 7.36001 129.99 7.28 129.66 7.28C129.18 7.28 128.8 7.47 128.5 7.84C128.21 8.21 128.06 8.73 128.06 9.37C128.06 9.68 128.1 9.95999 128.17 10.21C128.24 10.46 128.35 10.68 128.49 10.86C128.63 11.04 128.81 11.18 129.01 11.27C129.21 11.37 129.44 11.41 129.68 11.41C130.01 11.41 130.28 11.33 130.51 11.18C130.75 11.03 130.95 10.8 131.13 10.49C131.23 10.31 131.34 10.17 131.45 10.06C131.56 9.96 131.71 9.89999 131.87 9.89999C132.07 9.89999 132.23 9.98 132.36 10.13C132.47 10.32 132.54 10.48 132.54 10.65Z" fill="#F58225"/>
<path d="M139.53 9.35999C139.53 9.83999 139.45 10.29 139.31 10.7C139.16 11.11 138.94 11.46 138.65 11.75C138.37 12.04 138.02 12.27 137.63 12.43C137.23 12.59 136.79 12.66 136.29 12.66C135.8 12.66 135.36 12.58 134.96 12.42C134.57 12.26 134.23 12.04 133.94 11.74C133.65 11.44 133.43 11.09 133.28 10.69C133.14 10.29 133.06 9.83999 133.06 9.35999C133.06 8.86999 133.14 8.42001 133.28 8.01001C133.43 7.60001 133.65 7.24999 133.93 6.95999C134.21 6.66999 134.55 6.45001 134.95 6.29001C135.35 6.14001 135.79 6.06 136.28 6.06C136.77 6.06 137.22 6.13999 137.62 6.29999C138.02 6.45999 138.36 6.68 138.65 6.97C138.94 7.27 139.15 7.61001 139.3 8.01001C139.46 8.43001 139.53 8.86999 139.53 9.35999ZM137.9 9.35999C137.9 8.69999 137.75 8.18001 137.46 7.82001C137.17 7.45001 136.78 7.26001 136.29 7.26001C135.97 7.26001 135.69 7.34001 135.45 7.51001C135.21 7.67001 135.02 7.91999 134.89 8.23999C134.76 8.55999 134.69 8.93999 134.69 9.35999C134.69 9.77999 134.75 10.15 134.88 10.47C135.01 10.79 135.19 11.03 135.43 11.2C135.67 11.37 135.95 11.45 136.27 11.45C136.76 11.45 137.15 11.26 137.44 10.89C137.76 10.53 137.9 10.01 137.9 9.35999Z" fill="#F58225"/>
<path d="M145.71 9.48001V11.63C145.71 11.97 145.63 12.22 145.48 12.4C145.32 12.57 145.12 12.66 144.87 12.66C144.62 12.66 144.42 12.58 144.28 12.4C144.13 12.23 144.05 11.98 144.05 11.63V9.04999C144.05 8.63999 144.04 8.32001 144.01 8.10001C143.98 7.88001 143.91 7.68999 143.78 7.54999C143.66 7.39999 143.46 7.32999 143.2 7.32999C142.67 7.32999 142.32 7.51 142.15 7.88C141.98 8.24 141.9 8.76001 141.9 9.45001V11.64C141.9 11.98 141.82 12.23 141.67 12.4C141.51 12.57 141.31 12.66 141.07 12.66C140.82 12.66 140.62 12.57 140.47 12.4C140.31 12.23 140.23 11.97 140.23 11.64V7C140.23 6.69 140.3 6.46 140.44 6.31C140.58 6.15 140.77 6.07001 141 6.07001C141.22 6.07001 141.41 6.15001 141.56 6.29001C141.71 6.44001 141.78 6.64 141.78 6.91V7.06C142.06 6.73 142.36 6.48001 142.68 6.32001C143 6.16001 143.36 6.07999 143.75 6.07999C144.16 6.07999 144.51 6.16001 144.8 6.32001C145.09 6.48001 145.33 6.72999 145.53 7.04999C145.8 6.71999 146.1 6.47 146.41 6.31C146.72 6.15 147.07 6.07001 147.45 6.07001C147.89 6.07001 148.28 6.15999 148.6 6.32999C148.92 6.49999 149.16 6.74999 149.32 7.07999C149.46 7.37999 149.53 7.84 149.53 8.47V11.63C149.53 11.97 149.45 12.22 149.3 12.4C149.15 12.57 148.94 12.66 148.69 12.66C148.44 12.66 148.24 12.57 148.09 12.4C147.93 12.23 147.85 11.97 147.85 11.64V8.91C147.85 8.56 147.84 8.28001 147.81 8.07001C147.78 7.86001 147.7 7.68001 147.57 7.54001C147.44 7.40001 147.24 7.32999 146.97 7.32999C146.76 7.32999 146.55 7.39999 146.36 7.51999C146.17 7.63999 146.02 7.82 145.91 8.03C145.77 8.3 145.71 8.79001 145.71 9.48001Z" fill="#F58225"/>
<path d="M70.35 9.48999C70.36 9.48999 70.36 9.48999 70.35 9.48999C70.32 9.33999 70.3 9.19999 70.28 9.04999C70.3 9.19999 70.32 9.33999 70.35 9.48999Z" fill="#F58225"/>
<path d="M70.89 10.99C70.89 10.98 70.88 10.98 70.88 10.97C70.88 10.98 70.89 10.99 70.89 10.99Z" fill="#F58225"/>
<path d="M70.84 10.89C70.83 10.86 70.81 10.83 70.8 10.81C70.81 10.84 70.83 10.87 70.84 10.89Z" fill="#F58225"/>
<path d="M70.5 10.07C70.58 10.32 70.67 10.56 70.79 10.79C70.68 10.56 70.58 10.31 70.5 10.07C70.51 10.07 70.51 10.07 70.5 10.07Z" fill="#F58225"/>
<path d="M76.55 2.76001C76.86 2.76001 77.09 2.77999 77.36 2.82999L77.44 2.35001C77.44 2.35001 76.71 2.13001 75.75 2.20001L75.67 1.94C75.97 1.88 76.19 1.61001 76.19 1.29001C76.19 0.930009 75.89 0.630005 75.53 0.630005C75.17 0.630005 74.87 0.920009 74.87 1.29001C74.87 1.61001 75.09 1.87 75.39 1.94L75.47 2.23001C74.45 2.37001 73.64 2.76999 73.64 2.76999L73.78 3.20999C74.4 3.00999 74.93 2.87999 75.42 2.82999C75.9 2.77999 76.25 2.76001 76.55 2.76001Z" fill="#F58225"/>
<path d="M70.88 5.17001C70.91 5.13001 70.93 5.10999 70.95 5.07999L70.75 4.94L70.45 4.72C70.43 4.74 69.95 5.19 69.57 6C69.55 5.97 69.54 5.94999 69.51 5.92999C69.4 5.80999 69.24 5.74 69.04 5.75H69.03C68.91 5.75 68.82 5.71 68.76 5.66C68.82 5.59 68.85 5.49999 68.85 5.39999C68.85 5.16999 68.66 4.98001 68.43 4.98001C68.2 4.98001 68.01 5.16999 68.01 5.39999C68.01 5.62999 68.2 5.82001 68.43 5.82001C68.47 5.82001 68.5 5.81 68.53 5.81C68.63 5.92 68.8 6.01999 69.03 6.01999C69.15 6.01999 69.24 6.05 69.3 6.12C69.37 6.2 69.39 6.30001 69.4 6.39001C69.13 7.13001 69.21 8.06 69.21 8.06L69.87 8.09C69.88 7.75 69.93 7.16001 70.1 6.70001C70.45 5.76001 70.86 5.20001 70.88 5.17001Z" fill="#F58225"/>
<path d="M82.29 3.31C82.06 3.31 81.87 3.50001 81.87 3.73001C81.87 3.77001 81.87 3.79999 81.88 3.82999C81.77 3.92999 81.67 4.1 81.67 4.34C81.67 4.46 81.64 4.54999 81.57 4.60999C81.52 4.65999 81.45 4.68001 81.39 4.70001C80.9 4.01001 80.29 3.59 80.29 3.59L79.82 4.10001C80.18 4.43001 80.55 4.83 80.9 5.34C81.15 5.69 81.4 6.15001 81.61 6.60001L82.25 6.29999C82.25 6.29999 81.96 5.57999 81.55 4.92999C81.62 4.89999 81.69 4.87 81.76 4.81C81.89 4.7 81.95 4.54 81.94 4.34C81.94 4.21 81.98 4.12 82.03 4.06C82.1 4.11 82.19 4.14999 82.29 4.14999C82.52 4.14999 82.71 3.96001 82.71 3.73001C82.71 3.50001 82.53 3.31 82.29 3.31Z" fill="#F58225"/>
<path d="M80.63 9.07001C79.75 9.50001 78.3 10.07 76.39 10.33C75.64 10.43 74.92 10.47 74.25 10.47C73.38 10.47 72.61 10.41 72.02 10.33C71.35 10.25 70.82 10.14 70.5 10.07C70.58 10.32 70.67 10.56 70.78 10.79C70.78 10.8 70.78 10.8 70.79 10.81C70.8 10.84 70.82 10.87 70.83 10.89C70.84 10.92 70.86 10.94 70.87 10.97C70.87 10.98 70.88 10.98 70.88 10.99C71.07 11.35 71.3 11.67 71.56 11.96C72.46 12.94 73.38 13.1 73.39 13.1H73.4L73.41 13.11C73.42 13.11 74.23 13.38 75.47 13.38C76.69 13.38 77.88 13.13 79.02 12.65C79.86 12.22 80.66 11.56 81.05 10.98C81.36 10.53 81.58 10.05 81.71 9.54999C81.78 9.27999 81.83 8.86 81.8 8.41C81.56 8.57 81.16 8.81001 80.63 9.07001Z" fill="#F58225"/>
<path d="M71.16 5.38C71.13 5.42 70.75 5.96001 70.45 6.79001C70.22 7.41001 70.23 8.31999 70.23 8.32999C70.23 8.53999 70.24 8.74999 70.27 8.95999V8.97C70.27 9 70.28 9.01999 70.28 9.04999C70.3 9.19999 70.32 9.33999 70.35 9.48999C70.79 9.59999 73.4 10.21 76.32 9.79999C78.15 9.53999 79.54 9.00001 80.38 8.60001C81.08 8.26001 81.53 7.94999 81.7 7.82999C81.53 7.18999 81.05 6.17999 80.61 5.54999C79.36 3.75999 78.01 3.3 77.31 3.19C77.05 3.15 76.83 3.12 76.53 3.12C76.25 3.12 75.9 3.14 75.44 3.19C74.98 3.24 74.46 3.36 73.86 3.56C73.02 3.84 72.26 4.28 71.66 4.84L71.64 4.85999C71.56 4.93999 71.37 5.11 71.16 5.38ZM78.83 4.95999C79.43 4.95999 79.92 5.44999 79.92 6.04999C79.92 6.64999 79.43 7.14001 78.83 7.14001C78.23 7.14001 77.74 6.64999 77.74 6.04999C77.74 5.44999 78.23 4.95999 78.83 4.95999ZM73.68 4.92001C74.65 4.92001 75.44 5.70999 75.44 6.67999C75.44 7.64999 74.65 8.44 73.68 8.44C72.71 8.44 71.92 7.64999 71.92 6.67999C71.92 5.70999 72.71 4.92001 73.68 4.92001Z" fill="#F58225"/>
</svg>
