<svg width="30" height="25" viewBox="0 0 30 25" fill="none" xmlns="http://www.w3.org/2000/svg">
<path d="M14.8 21.21C8.83999 21.21 3.28001 18 0.290009 12.83L0 12.33L0.290009 11.83C3.28001 6.65999 8.83999 3.45001 14.8 3.45001C20.76 3.45001 26.32 6.65999 29.31 11.83L29.6 12.33L29.31 12.83C26.31 18 20.75 21.21 14.8 21.21ZM2.32001 12.33C5.01001 16.59 9.74001 19.21 14.79 19.21C19.84 19.21 24.57 16.59 27.26 12.33C24.57 8.06999 19.84 5.45001 14.79 5.45001C9.75001 5.46001 5.02001 8.07999 2.32001 12.33Z" fill="#C4C4C4"/>
<path d="M14.8 21.21C9.89999 21.21 5.92001 17.23 5.92001 12.33C5.92001 7.42999 9.89999 3.45001 14.8 3.45001C19.69 3.45001 23.68 7.42999 23.68 12.33C23.67 17.23 19.69 21.21 14.8 21.21ZM14.8 5.45999C11.01 5.45999 7.92001 8.54 7.92001 12.34C7.92001 16.13 11 19.22 14.8 19.22C18.59 19.22 21.68 16.14 21.68 12.34C21.67 8.54 18.59 5.45999 14.8 5.45999Z" fill="#C4C4C4"/>
<path d="M25.3208 0.386017L2.84213 22.8647L4.25633 24.2789L26.735 1.80022L25.3208 0.386017Z" fill="#C4C4C4"/>
</svg>
