<svg width="22" height="27" viewBox="0 0 22 27" fill="none" xmlns="http://www.w3.org/2000/svg">
<path d="M20.21 9.01999V5.60999C20.21 2.57999 17.74 0.109985 14.71 0.109985H7.68C4.65 0.109985 2.18 2.57999 2.18 5.60999V9.01999H0.459999V19.95C0.459999 23.6 3.42 26.56 7.07 26.56H15.33C18.98 26.56 21.94 23.6 21.94 19.95V9.01999H20.21ZM12.27 17.85V21.74C12.27 22.34 11.79 22.82 11.19 22.82C10.59 22.82 10.11 22.34 10.11 21.74V17.85C9.01 17.36 8.31 16.16 8.6 14.83C8.82 13.82 9.66 13 10.68 12.82C12.37 12.51 13.85 13.8 13.85 15.43C13.85 16.5 13.2 17.43 12.27 17.85ZM17.21 9.01999H5.18V5.60999C5.18 4.22999 6.3 3.10999 7.68 3.10999H14.71C16.09 3.10999 17.21 4.22999 17.21 5.60999V9.01999Z" fill="white"/>
</svg>
